<?xml version="1.0" encoding="utf-8"?>
<!-- Generator: Adobe Illustrator 19.1.0, SVG Export Plug-In . SVG Version: 6.00 Build 0)  -->
<svg version="1.1" id="Layer_1" xmlns="http://www.w3.org/2000/svg" xmlns:xlink="http://www.w3.org/1999/xlink" x="0px" y="0px"
	 viewBox="0 0 218.3 399.4" style="enable-background:new 0 0 218.3 399.4;" xml:space="preserve">
<style type="text/css">
	.st0{fill:#DBB238;}
	.st1{fill:none;stroke:#D9E6E6;stroke-width:9.6185;stroke-miterlimit:10;}
	.st2{fill:#D9E6E6;}
	.st3{fill:#519D4F;}
	.st4{fill:none;stroke:#29181F;stroke-width:9.6185;stroke-miterlimit:10;}
	.st5{fill:#29181F;}
	.st6{fill:#BA906A;}
	.st7{fill:none;stroke:#DBB238;stroke-width:9.6185;stroke-miterlimit:10;}
	.st8{font-family:'MuktaVaani-SemiBold';}
	.st9{font-size:158.3189px;}
	.st10{font-size:123.8223px;}
	.st11{fill:none;stroke:#519D4F;stroke-width:9.6185;stroke-miterlimit:10;}
</style>
<g>
	<g>
		<path class="st6" d="M10.1,199.7c0,3.8-5.4,7.6-5.3,11.3c0.1,3.8,5.8,7.3,6,11c0.2,3.8-5,7.9-4.6,11.6c0.4,3.8,6.2,6.9,6.7,10.6
			c0.5,3.8-4.4,8.3-3.8,11.9c0.6,3.7,6.7,6.5,7.4,10.1c0.7,3.7-3.8,8.6-3,12.2c0.9,3.7,7.1,6,8.1,9.5c1,3.7-3.2,8.8-2,12.4
			c1.2,3.6,7.6,5.4,8.9,8.8c1.3,3.6-2.4,9.1-0.9,12.5c1.5,3.5,8.1,4.6,9.7,7.9c1.7,3.4-1.4,9.3,0.4,12.5c1.9,3.3,8.5,3.6,10.6,6.7
			c2.1,3.2-0.1,9.5,2.2,12.3c2.4,3,9,2.3,11.5,4.9c2.7,2.8,1.7,9.4,4.5,11.7c3,2.5,9.2,0.2,12.3,2.2c3.3,2,4.1,8.6,7.5,10
			c3.5,1.5,8.7-2.7,12.3-1.9c3.7,0.8,6.8,6.6,10.6,6.6c3.8,0,7-5.8,10.6-6.6c3.6-0.8,8.8,3.4,12.3,1.9c3.4-1.4,4.2-8,7.5-10
			c3.1-1.9,9.4,0.3,12.3-2.2c2.8-2.3,1.8-8.9,4.5-11.7c2.5-2.6,9.1-1.9,11.5-4.9c2.3-2.9,0-9.1,2.2-12.3c2-3,8.7-3.4,10.6-6.7
			c1.8-3.2-1.3-9.1,0.4-12.5c1.6-3.3,8.2-4.4,9.7-7.9c1.5-3.4-2.3-8.9-0.9-12.5c1.3-3.5,7.7-5.2,8.9-8.8c1.1-3.5-3.1-8.7-2-12.4
			c1-3.6,7.2-5.8,8.1-9.5c0.9-3.6-3.7-8.4-3-12.2c0.7-3.6,6.8-6.4,7.4-10.1c0.6-3.7-4.3-8.2-3.8-11.9c0.5-3.7,6.3-6.8,6.7-10.6
			c0.3-3.7-4.8-7.9-4.6-11.6c0.2-3.7,5.9-7.2,6-11c0.1-3.7-5.3-7.6-5.3-11.3c0-3.8,5.4-7.6,5.3-11.3c-0.1-3.8-5.8-7.3-6-11
			c-0.2-3.8,5-7.9,4.6-11.6c-0.4-3.8-6.2-6.9-6.7-10.6c-0.5-3.8,4.4-8.3,3.8-11.9c-0.6-3.7-6.7-6.5-7.4-10.1
			c-0.7-3.7,3.8-8.6,3-12.2c-0.9-3.7-7.1-6-8.1-9.5c-1-3.7,3.2-8.8,2-12.4c-1.2-3.6-7.6-5.4-8.9-8.8c-1.3-3.6,2.4-9.1,0.9-12.5
			c-1.5-3.5-8.1-4.6-9.7-7.9c-1.7-3.4,1.4-9.3-0.4-12.5c-1.9-3.3-8.5-3.6-10.6-6.7c-2.1-3.2,0.1-9.5-2.2-12.3c-2.4-3-9-2.3-11.5-4.9
			c-2.7-2.8-1.7-9.4-4.5-11.7c-3-2.5-9.2-0.2-12.3-2.2c-3.3-2-4.1-8.6-7.5-10c-3.5-1.5-8.7,2.7-12.3,1.9c-3.7-0.8-6.8-6.6-10.6-6.6
			c-3.8,0-7,5.8-10.6,6.6c-3.6,0.8-8.8-3.4-12.3-1.9c-3.4,1.4-4.2,8-7.5,10c-3.1,1.9-9.4-0.3-12.3,2.2c-2.8,2.3-1.8,8.9-4.5,11.7
			c-2.5,2.6-9.1,1.9-11.5,4.9c-2.3,2.9,0,9.1-2.2,12.3c-2,3-8.7,3.4-10.6,6.7c-1.8,3.2,1.3,9.1-0.4,12.5c-1.6,3.3-8.2,4.4-9.7,7.9
			c-1.5,3.4,2.3,8.9,0.9,12.5c-1.3,3.5-7.7,5.2-8.9,8.8c-1.1,3.5,3.1,8.7,2,12.4c-1,3.6-7.2,5.8-8.1,9.5c-0.9,3.6,3.7,8.4,3,12.2
			c-0.7,3.6-6.8,6.4-7.4,10.1c-0.6,3.7,4.3,8.2,3.8,11.9c-0.5,3.7-6.3,6.8-6.7,10.6c-0.3,3.7,4.8,7.9,4.6,11.6
			c-0.2,3.7-5.9,7.2-6,11C4.7,192.1,10.1,195.9,10.1,199.7z"/>
		<path class="st7" d="M10.1,199.7c0,3.8-5.4,7.6-5.3,11.3c0.1,3.8,5.8,7.3,6,11c0.2,3.8-5,7.9-4.6,11.6c0.4,3.8,6.2,6.9,6.7,10.6
			c0.5,3.8-4.4,8.3-3.8,11.9c0.6,3.7,6.7,6.5,7.4,10.1c0.7,3.7-3.8,8.6-3,12.2c0.9,3.7,7.1,6,8.1,9.5c1,3.7-3.2,8.8-2,12.4
			c1.2,3.6,7.6,5.4,8.9,8.8c1.3,3.6-2.4,9.1-0.9,12.5c1.5,3.5,8.1,4.6,9.7,7.9c1.7,3.4-1.4,9.3,0.4,12.5c1.9,3.3,8.5,3.6,10.6,6.7
			c2.1,3.2-0.1,9.5,2.2,12.3c2.4,3,9,2.3,11.5,4.9c2.7,2.8,1.7,9.4,4.5,11.7c3,2.5,9.2,0.2,12.3,2.2c3.3,2,4.1,8.6,7.5,10
			c3.5,1.5,8.7-2.7,12.3-1.9c3.7,0.8,6.8,6.6,10.6,6.6c3.8,0,7-5.8,10.6-6.6c3.6-0.8,8.8,3.4,12.3,1.9c3.4-1.4,4.2-8,7.5-10
			c3.1-1.9,9.4,0.3,12.3-2.2c2.8-2.3,1.8-8.9,4.5-11.7c2.5-2.6,9.1-1.9,11.5-4.9c2.3-2.9,0-9.1,2.2-12.3c2-3,8.7-3.4,10.6-6.7
			c1.8-3.2-1.3-9.1,0.4-12.5c1.6-3.3,8.2-4.4,9.7-7.9c1.5-3.4-2.3-8.9-0.9-12.5c1.3-3.5,7.7-5.2,8.9-8.8c1.1-3.5-3.1-8.7-2-12.4
			c1-3.6,7.2-5.8,8.1-9.5c0.9-3.6-3.7-8.4-3-12.2c0.7-3.6,6.8-6.4,7.4-10.1c0.6-3.7-4.3-8.2-3.8-11.9c0.5-3.7,6.3-6.8,6.7-10.6
			c0.3-3.7-4.8-7.9-4.6-11.6c0.2-3.7,5.9-7.2,6-11c0.1-3.7-5.3-7.6-5.3-11.3c0-3.8,5.4-7.6,5.3-11.3c-0.1-3.8-5.8-7.3-6-11
			c-0.2-3.8,5-7.9,4.6-11.6c-0.4-3.8-6.2-6.9-6.7-10.6c-0.5-3.8,4.4-8.3,3.8-11.9c-0.6-3.7-6.7-6.5-7.4-10.1
			c-0.7-3.7,3.8-8.6,3-12.2c-0.9-3.7-7.1-6-8.1-9.5c-1-3.7,3.2-8.8,2-12.4c-1.2-3.6-7.6-5.4-8.9-8.8c-1.3-3.6,2.4-9.1,0.9-12.5
			c-1.5-3.5-8.1-4.6-9.7-7.9c-1.7-3.4,1.4-9.3-0.4-12.5c-1.9-3.3-8.5-3.6-10.6-6.7c-2.1-3.2,0.1-9.5-2.2-12.3c-2.4-3-9-2.3-11.5-4.9
			c-2.7-2.8-1.7-9.4-4.5-11.7c-3-2.5-9.2-0.2-12.3-2.2c-3.3-2-4.1-8.6-7.5-10c-3.5-1.5-8.7,2.7-12.3,1.9c-3.7-0.8-6.8-6.6-10.6-6.6
			c-3.8,0-7,5.8-10.6,6.6c-3.6,0.8-8.8-3.4-12.3-1.9c-3.4,1.4-4.2,8-7.5,10c-3.1,1.9-9.4-0.3-12.3,2.2c-2.8,2.3-1.8,8.9-4.5,11.7
			c-2.5,2.6-9.1,1.9-11.5,4.9c-2.3,2.9,0,9.1-2.2,12.3c-2,3-8.7,3.4-10.6,6.7c-1.8,3.2,1.3,9.1-0.4,12.5c-1.6,3.3-8.2,4.4-9.7,7.9
			c-1.5,3.4,2.3,8.9,0.9,12.5c-1.3,3.5-7.7,5.2-8.9,8.8c-1.1,3.5,3.1,8.7,2,12.4c-1,3.6-7.2,5.8-8.1,9.5c-0.9,3.6,3.7,8.4,3,12.2
			c-0.7,3.6-6.8,6.4-7.4,10.1c-0.6,3.7,4.3,8.2,3.8,11.9c-0.5,3.7-6.3,6.8-6.7,10.6c-0.3,3.7,4.8,7.9,4.6,11.6
			c-0.2,3.7-5.9,7.2-6,11C4.7,192.1,10.1,195.9,10.1,199.7z"/>
	</g>
	<text transform="matrix(0.3667 0 0 1 57.0828 211.315)" class="st0 st8 st9">VOL.</text>
	<text transform="matrix(1 0 0 1 54.4986 313.5602)" class="st0 st8 st10">19</text>
</g>
</svg>
