<?xml version="1.0" encoding="utf-8"?>
<!-- Generator: Adobe Illustrator 19.1.0, SVG Export Plug-In . SVG Version: 6.00 Build 0)  -->
<svg version="1.1" id="Layer_1" xmlns="http://www.w3.org/2000/svg" xmlns:xlink="http://www.w3.org/1999/xlink" x="0px" y="0px"
	 viewBox="0 0 502.1 590" style="enable-background:new 0 0 502.1 590;" xml:space="preserve">
<style type="text/css">
	.st0{fill:#D9E6E5;stroke:#010101;stroke-width:1.684;stroke-miterlimit:10;}
	.st1{fill:#DBB33A;}
	.st2{fill:#29181F;}
	.st3{fill:none;stroke:#529E4E;stroke-width:6.7331;stroke-miterlimit:10;}
	.st4{fill:none;stroke:#29181F;stroke-width:3.3665;stroke-linecap:round;stroke-miterlimit:10;}
	.st5{fill:none;}
	.st6{fill:#D9E6E5;}
	.st7{fill:none;stroke:#29181F;stroke-width:3.3665;stroke-miterlimit:10;}
	.st8{fill:#529E4E;}
	.st9{fill:#FFFFFF;stroke:#231F20;stroke-width:1.6843;stroke-miterlimit:10;}
	.st10{fill:#231F20;}
</style>
<g>
	<rect x="75.1" y="0.8" class="st9" width="426.1" height="587.5"/>
	<path class="st10" d="M294,148.1c5.5,1.5,8.3,16.2,5,18.1c-3.9,2.2-17.7-12.5-15.6-16.2c0.8-1.4,4.4-1.7,6.9-1.9
		C291.8,148,293,147.9,294,148.1z"/>
	<path class="st10" d="M293.4,192.4c-0.7-1-1.8-2-3.3-2.2c-11.6-1.6-33.5,53.2-21.2,64.3c1.3,1.2,4.2,3.2,7.8,3.8
		c33.7,5.3-5.4-27.1-11-13.4L293.4,192.4z"/>
	<g>
		<path class="st9" d="M163.5,313c-17,0-25.5-10.2-28.6-15.2c-11.4-18.4-7.4-52.4,12-101c15.2-38.1,38.1-79.4,58.2-105.2
			c12.5-16,31.5-36.5,51.5-30c12.9,4.2,19.8,17.1,20.6,38.4c0.3,9.3-6.9,17.1-16.2,17.5c-9.3,0.4-17.1-6.9-17.5-16.2
			c0-0.8-0.1-1.6-0.1-2.3c-17.3,16.6-53,70.3-72.8,131c-11.3,34.4-8.4,46.7-7.4,49.5c0.7,0,1.8,0,3.5-0.4c9.1-1.9,18,3.9,19.9,13
			c1.9,9.1-3.9,18-13,19.9C169.9,312.6,166.6,313,163.5,313z"/>
	</g>
	<g>
		<path class="st9" d="M354.3,212.1c-7.3,0-14-4.8-16.2-12.2c-5.6-19.3-6.2-45.7-6.9-71.2c-0.2-8.5-0.5-19.2-1.1-28.3
			c-3.8,5.8-8.6,13.8-14.8,25.1c-4.5,8.2-14.7,11.2-22.9,6.7c-8.2-4.5-11.2-14.7-6.7-22.9c21.5-39.4,36.8-59.8,56.2-55.1
			c21.2,5.1,21.9,32.4,22.9,73.6c0.6,22.3,1.2,47.6,5.6,62.7c2.6,8.9-2.6,18.3-11.5,20.9C357.4,211.9,355.9,212.1,354.3,212.1z"/>
	</g>
	<path class="st9" d="M75.2,588.3C46.4,527,41.8,398.8,28,335.9c20.8,16.9,38.4,14,52.8-8.7c24.6,51,46.1,103.3,64.5,156.8
		L75.2,588.3z"/>
	<path class="st10" d="M336,264c205,272.4-84.7,243.5-168.8,297c47.8-34.2-6.1-294.5,59.7-288.4c-105,324.6,228.7,77.2,95.7,2.7
		L336,264z"/>
	<path class="st9" d="M34.6,334.7c2.6-89.3-13.9-114.6-32.9-216.1c21.1,15.5,40.2,22.9,53.2,26.6c12.1,3.5,25.3,7.1,42.7,4.9
		c15.6-2,27.8-7.9,35.6-12.6c-12.3,44.4-24.6,75.5-33.9,96.2c-2.4,5.4-5.4,11.7-8.5,21.1c-4.9,14.7-11.2,37.8-10.1,77.4"/>
	<path class="st9" d="M14.3,325.3c-15.9,98.6,132.6,60.5,90.7-12L14.3,325.3z"/>
	<path class="st9" d="M43.4,113.9c-5.2-1.5-6.4-36.5,9.3-44.3c4.6-2.3,11.4-2.6,13.8,0.5c3.4,4.4-2.9,14.6-11.2,28.2
		C48.8,109,45.4,114.4,43.4,113.9z"/>
	<path class="st10" d="M80.1,106.9c-3.4-6.7-4.4-15.1,10.8-57.4c3.7-10.2,7.2-19.5,14.7-21.2c1-0.3,3.9-0.9,5.9,0.3
		c12.8,7.7-12.9,86.3-26.2,84.6C83.1,112.9,81.8,110.3,80.1,106.9z"/>
	<path class="st9" d="M114.5,127.5c-6.8-1.8-10.4-39.5,6.9-48.7c4.2-2.2,11.5-3.8,14.8-0.3C145,87.7,122.3,129.6,114.5,127.5z"/>
	<path class="st9" d="M6.5,113.9c-6.2-1.1-10.6-40.6,4.9-48.7c2.7-1.4,7.6-2.7,10.5-0.3C31.1,72.6,13.2,115.1,6.5,113.9z"/>
	<path class="st10" d="M48.2,351.5c0.4,13.5,20.8,23.5,29.4,18.2c6.4-4,6.7-16.9,2.7-25.6c-0.9-2-5-10.8-12.8-11.8
		C58.1,331,48,341.8,48.2,351.5z"/>
</g>
</svg>
