<?xml version="1.0" encoding="utf-8"?>
<!-- Generator: Adobe Illustrator 19.1.0, SVG Export Plug-In . SVG Version: 6.00 Build 0)  -->
<svg version="1.1" id="Layer_1" xmlns="http://www.w3.org/2000/svg" xmlns:xlink="http://www.w3.org/1999/xlink" x="0px" y="0px"
	 viewBox="0 0 588.8 591.2" style="enable-background:new 0 0 588.8 591.2;" xml:space="preserve">
<style type="text/css">
	.st0{fill:#D9E6E5;stroke:#010101;stroke-width:1.684;stroke-miterlimit:10;}
	.st1{fill:#DBB33A;}
	.st2{fill:#29181F;}
	.st3{fill:none;stroke:#529E4E;stroke-width:6.7331;stroke-miterlimit:10;}
	.st4{fill:none;stroke:#29181F;stroke-width:3.3665;stroke-linecap:round;stroke-miterlimit:10;}
	.st5{fill:none;}
	.st6{fill:#D9E6E5;}
	.st7{fill:none;stroke:#29181F;stroke-width:3.3665;stroke-miterlimit:10;}
	.st8{fill:#529E4E;}
	.st9{fill:#FFFFFF;stroke:#231F20;stroke-width:1.6843;stroke-miterlimit:10;}
	.st10{fill:#231F20;}
</style>
<g>
	<path class="st0" d="M588,165.8v424.6H0.8V74.7c44.4-22.5,88.6-45.1,138.5-57.4c2.8-0.7,6.2-1.3,8.4,0.4c3.2,2.4,0.5,6.7-2.4,9.4
		C107.7,63.6,59.8,93.4,30,134.4c-1.4,1.9-2.8,4-2.2,6.2c1.4,5.7,11.9,4.2,17.9,1.3c70.2-33.9,135.6-76.4,212.8-97.8
		c5.7-1.5,13.4-2.4,16.4,1.8c1.8,2.6,0.8,5.9-0.4,8.8c-11.6,26.5-37,48.2-45.9,75.4c-1.1,3.3-1.8,7.1,0.8,9.8c3.6,3.8,11,2.7,16.5,1
		c57.7-17.5,104-55.5,162.4-71.2c3.6-1,8.4-1.6,10.6,0.9c1.8,2.1,0.6,4.9-0.6,7.3c-14,25.3-38.5,46.6-48.9,73.1
		c-1.1,2.8-1.9,6.4,0.7,8.5c2.7,2.2,7.2,1.4,10.7,0.4c47.6-13.5,89.4-39.3,138.3-49.2c4.5-0.9,10.1-1.4,13.1,1.5
		c2.4,2.4,1.9,5.8,1,8.8c-6.2,20.1-25.5,36.8-28.2,57.4c-0.3,2.4-0.3,4.9,1.4,6.8c3.1,3.4,9.5,2.8,14.6,1.7
		C544.2,181.8,566.6,174.7,588,165.8z"/>
	<g>
		<path class="st1" d="M188.2,315.6c207.3-76.4,103.6,5.5,246.3,66l4.7,9.2c-6.3,9.7-40.9,60.5-107.8,73.4
			c-83.8,16.2-144.4-41.2-149.8-46.6l-3,18.6c-10.5,31.5-97-117.9-9.8-216.5c12.8,40,19.7,81.1,20.7,123.1L188.2,315.6z"/>
		<path class="st2" d="M402.4,336.6c-0.6-1.1-1.8-1.6-2.2-1.8c-16.9-6.5-33.2-21.4-46.5-13.6c-6.7,3.9-9.5,12.2-10.8,18.2
			c-0.7,3.5-0.8,6.7,1.1,8.4c4.8,4.3,15.5-9.4,31.6-8.5c12.3,0.7,19.4,9.5,24.2,5.7C402.1,343.3,403.8,339,402.4,336.6z"/>
		<path class="st3" d="M229,360.1c-0.2-3.7,0-11.6,4.3-20c3.3-6.4,7.6-10.5,10.3-12.7l12.5,9.1c-4.8,7.1-7.2,15.7-6.7,24.2
			L229,360.1z"/>
		<path class="st4" d="M141.2,347.5c0,0-38.8-20.8-41.3-18.4"/>
		<path class="st4" d="M161.4,315.8c-5,0.4-67.2-21.3-67.8-22.3"/>
		<path class="st4" d="M161.4,303.4c-0.8-11.6-48.1-29.8-51.7-35.5"/>
		<path class="st4" d="M162.6,286.6c-6.9-9.5-40.2-44.3-40.4-44.5"/>
		<path class="st4" d="M170,272.4c-3.1-24.3-32.7-51.5-35.7-64.7"/>
	</g>
	<path class="st6" d="M436.4,388.1c3-1.3,12.8-5.2,14.6-2.9c1.7,2.3-3.7,11.2-8.7,9.9c-2.8-0.7-4.4-4.4-6-7.4
		c-12.6-22.8,20.4-20.1,15.2-14.6L436.4,388.1z"/>
	<path class="st7" d="M520.9,373.2c-1.2,2.3-8.6,16.7-2.4,32.7c3.8,9.7,10.6,15.2,13.8,17.4"/>
	<path class="st8" d="M490.6,347.5c-1.1-13.2,4.8-24,4.5-24.1c0,0,0,0,0,0c20.3-17.1,35.1,59.5,63.2,51.5c-3.7,4.2-7.5,6.5-10.6,7.7
		c-22.5,8.9-54.7-16.7-56.9-33.5C490.7,348.7,490.6,348.1,490.6,347.5z"/>
	<path class="st7" d="M512,0.4c3.2,12.7,6.1,25.8,8.7,39.2c23.2,118,17.4,227.5,0.2,321.1"/>
</g>
</svg>
