<?xml version="1.0" encoding="utf-8"?>
<!-- Generator: Adobe Illustrator 19.1.0, SVG Export Plug-In . SVG Version: 6.00 Build 0)  -->
<svg version="1.1" id="Layer_1" xmlns="http://www.w3.org/2000/svg" xmlns:xlink="http://www.w3.org/1999/xlink" x="0px" y="0px"
	 viewBox="0 0 198 161" style="enable-background:new 0 0 198 161;" xml:space="preserve">
<style type="text/css">
	.st0{fill:#C2C4C6;}
</style>
<g>
	<path class="st0" d="M62.3,161C137,161,177.9,99,177.9,45.3c0-1.8,0-3.5-0.1-5.3c7.9-5.7,14.8-12.9,20.3-21
		c-7.3,3.2-15.1,5.4-23.3,6.4c8.4-5,14.8-13,17.9-22.5c-7.9,4.7-16.5,8-25.8,9.9C159.4,4.9,148.8,0,137.1,0
		c-22.4,0-40.6,18.2-40.6,40.6c0,3.2,0.4,6.3,1.1,9.3C63.8,48.2,33.8,32,13.8,7.4c-3.5,6-5.5,13-5.5,20.4c0,14.1,7.2,26.5,18.1,33.8
		c-6.7-0.2-12.9-2-18.4-5.1c0,0.2,0,0.3,0,0.5C8,76.8,22,93.2,40.5,97c-3.4,0.9-7,1.4-10.7,1.4c-2.6,0-5.2-0.3-7.6-0.7
		c5.2,16.1,20.2,27.9,38,28.2c-13.9,10.9-31.4,17.4-50.5,17.4c-3.3,0-6.5-0.2-9.7-0.6C18,154.2,39.3,161,62.3,161"/>
</g>
</svg>
